<svg width="577" height="90" viewBox="0 0 577 90" fill="none" xmlns="http://www.w3.org/2000/svg">
<path d="M0 3.42519C0 1.92913 0.405217 1.1811 1.21565 1.1811H38.9009C39.6607 1.1811 40.0405 1.85039 40.0405 3.18898L39.9646 13.8189C39.9646 15.4724 39.458 16.2992 38.445 16.2992H14.7398C13.7774 16.2992 13.2962 16.9291 13.2962 18.189V36.4961C13.2962 37.7559 13.6761 38.3858 14.4359 38.3858H30.9232C31.7336 38.3858 32.1388 39.0157 32.1388 40.2756V51.4961C32.1388 52.5984 31.7589 53.1496 30.9991 53.1496H14.3599C13.6508 53.1496 13.2962 53.6614 13.2962 54.685V86.1024C13.2962 87.9134 12.6377 88.8189 11.3208 88.8189H1.67152C1.01304 88.8189 0.557174 88.622 0.303913 88.2283C0.101304 87.8346 0 87.2047 0 86.3386V3.42519Z" fill="white"/>
<path d="M47.1801 88.8189C46.7243 88.8189 46.395 88.5039 46.1924 87.874C45.9898 87.2441 45.9898 86.4173 46.1924 85.3937L65.111 3.5433C65.3136 2.67716 65.5415 2.08661 65.7948 1.77165C66.0481 1.37795 66.4786 1.1811 67.0864 1.1811H78.4832C79.5975 1.1811 80.3573 2.04724 80.7625 3.77953L99.5291 85.6299C99.6811 86.2598 99.6811 86.9685 99.5291 87.7559C99.3772 88.4646 99.0733 88.8189 98.6174 88.8189H87.4486C86.6888 88.8189 86.2076 88.2677 86.005 87.1653L82.0541 69.9213C82.0035 69.5276 81.9022 69.2126 81.7502 68.9764C81.6489 68.7402 81.421 68.622 81.0664 68.622H62.5277C62.0212 68.622 61.692 69.0157 61.54 69.8031L57.5132 87.2835C57.4119 87.7559 57.2346 88.1496 56.9813 88.4646C56.7787 88.7008 56.4241 88.8189 55.9176 88.8189H47.1801ZM77.9513 52.9134C78.6604 52.9134 78.8884 52.2441 78.6351 50.9055L72.253 23.2677C72.101 22.7953 71.9237 22.5591 71.7211 22.5591C71.5691 22.5591 71.4172 22.8346 71.2652 23.3858L64.8071 50.9055C64.4525 52.2441 64.6805 52.9134 65.4909 52.9134H77.9513Z" fill="white"/>
<path d="M116.509 88.8189C116.053 88.8189 115.699 88.622 115.445 88.2283C115.192 87.8346 115.066 87.3228 115.066 86.6929V3.66142C115.066 2.95276 115.192 2.3622 115.445 1.88976C115.749 1.41732 116.129 1.1811 116.585 1.1811H137.175C144.621 1.1811 150.294 3.14961 154.194 7.08661C158.145 10.9449 160.121 16.6535 160.121 24.2126C160.121 28.5433 159.361 32.2047 157.841 35.1968C156.372 38.189 153.814 40.9055 150.167 43.3465C150.015 43.4252 149.94 43.5827 149.94 43.8189C149.94 44.0551 150.015 44.2126 150.167 44.2913C154.169 46.3386 157.056 49.0157 158.829 52.3228C160.602 55.5512 161.488 59.8031 161.488 65.0787C161.488 73.1102 159.538 79.0945 155.638 83.0315C151.738 86.8898 145.913 88.8189 138.163 88.8189H116.509ZM137.783 74.8819C141.075 74.8819 143.532 73.8189 145.153 71.6929C146.824 69.5669 147.66 66.7323 147.66 63.189C147.66 60.6693 147.255 58.5827 146.445 56.9291C145.634 55.1968 144.52 53.8976 143.101 53.0315C141.734 52.1654 140.138 51.7323 138.315 51.7323H129.805C128.843 51.7323 128.362 52.4016 128.362 53.7402V72.6378C128.362 74.1339 128.716 74.8819 129.425 74.8819H137.783ZM138.315 37.3228C139.48 37.3228 140.569 37.126 141.582 36.7323C142.646 36.3386 143.557 35.6693 144.317 34.7244C145.128 33.7795 145.761 32.6378 146.217 31.2992C146.723 29.9606 146.976 28.3858 146.976 26.5748C146.976 22.874 146.09 20.0394 144.317 18.0709C142.595 16.1024 140.366 15.1181 137.631 15.1181H129.805C128.843 15.1181 128.362 15.7874 128.362 17.126V35.1968C128.362 36.6142 128.716 37.3228 129.425 37.3228H138.315Z" fill="white"/>
<path d="M189.65 1.1811C190.46 1.1811 190.866 1.88976 190.866 3.30709V85.9843C190.866 87.0079 190.688 87.7559 190.334 88.2283C190.03 88.622 189.523 88.8189 188.814 88.8189H179.241C178.583 88.8189 178.127 88.622 177.873 88.2283C177.671 87.8346 177.569 87.2047 177.569 86.3386V3.42519C177.569 1.92913 177.975 1.1811 178.785 1.1811H189.65Z" fill="white"/>
<path d="M207.462 88.8189C207.006 88.8189 206.676 88.5039 206.474 87.874C206.271 87.2441 206.271 86.4173 206.474 85.3937L225.392 3.5433C225.595 2.67716 225.823 2.08661 226.076 1.77165C226.33 1.37795 226.76 1.1811 227.368 1.1811H238.765C239.879 1.1811 240.639 2.04724 241.044 3.77953L259.811 85.6299C259.963 86.2598 259.963 86.9685 259.811 87.7559C259.659 88.4646 259.355 88.8189 258.899 88.8189H247.73C246.97 88.8189 246.489 88.2677 246.286 87.1653L242.336 69.9213C242.285 69.5276 242.184 69.2126 242.032 68.9764C241.93 68.7402 241.702 68.622 241.348 68.622H222.809C222.303 68.622 221.973 69.0157 221.821 69.8031L217.795 87.2835C217.693 87.7559 217.516 88.1496 217.263 88.4646C217.06 88.7008 216.706 88.8189 216.199 88.8189H207.462ZM238.233 52.9134C238.942 52.9134 239.17 52.2441 238.917 50.9055L232.534 23.2677C232.382 22.7953 232.205 22.5591 232.003 22.5591C231.851 22.5591 231.699 22.8346 231.547 23.3858L225.089 50.9055C224.734 52.2441 224.962 52.9134 225.772 52.9134H238.233Z" fill="white"/>
<path d="M321.39 1.1811C322.048 1.1811 322.378 1.77165 322.378 2.95275V86.9291C322.378 87.4803 322.251 87.9528 321.998 88.3465C321.744 88.6614 321.39 88.8189 320.934 88.8189H313.26C312.855 88.8189 312.526 88.7402 312.272 88.5827C312.019 88.4252 311.715 88.0315 311.361 87.4016L287.124 34.4882C286.921 34.0945 286.718 33.937 286.516 34.0157C286.364 34.0945 286.288 34.3307 286.288 34.7244V86.6929C286.338 88.1102 285.832 88.8189 284.768 88.8189H276.867C275.854 88.8189 275.347 88.1496 275.347 86.811V3.42519C275.347 1.92913 275.803 1.1811 276.715 1.1811H285.908C286.465 1.1811 286.87 1.29921 287.124 1.53543C287.428 1.77165 287.757 2.24409 288.111 2.95275L310.449 52.4409C310.753 53.0709 311.006 53.3465 311.209 53.2677C311.462 53.189 311.589 52.7953 311.589 52.0866V3.30709C311.589 1.88976 312.044 1.1811 312.956 1.1811H321.39Z" fill="white"/>
<path d="M364.757 90C359.388 90 354.754 88.2283 350.853 84.685C346.953 81.063 343.939 75.9055 341.812 69.2126C339.735 62.5197 338.697 54.5669 338.697 45.3543C338.697 35.9843 339.76 27.9134 341.888 21.1417C344.066 14.3701 347.105 9.17323 351.005 5.55118C354.906 1.85039 359.49 0 364.757 0C370.025 0 374.584 1.85039 378.433 5.55118C382.334 9.17323 385.347 14.3701 387.475 21.1417C389.602 27.8346 390.666 35.8661 390.666 45.2362C390.666 54.4488 389.602 62.4016 387.475 69.0945C385.398 75.7874 382.41 80.9449 378.509 84.5669C374.609 88.189 370.025 90 364.757 90ZM364.757 75.4724C368.911 75.4724 371.95 73.1496 373.875 68.5039C375.8 63.7795 376.762 56.1024 376.762 45.4724C376.762 34.6063 375.774 26.7323 373.799 21.8504C371.874 16.8898 368.86 14.4094 364.757 14.4094C360.604 14.4094 357.539 16.8898 355.564 21.8504C353.589 26.811 352.601 34.685 352.601 45.4724C352.601 56.0236 353.563 63.6614 355.488 68.3858C357.463 73.1102 360.553 75.4724 364.757 75.4724Z" fill="white"/>
<path d="M408.704 1.1811C409.616 1.1811 410.832 1.1811 412.351 1.1811C413.921 1.1811 415.542 1.1811 417.214 1.1811C418.936 1.1811 420.557 1.1811 422.076 1.1811C423.596 1.1811 424.786 1.22047 425.647 1.29921C432.485 1.53543 438.108 3.46457 442.515 7.08661C446.921 10.7087 450.163 15.7087 452.24 22.0866C454.367 28.3858 455.431 35.9055 455.431 44.6457C455.431 53.622 454.317 61.4567 452.088 68.1496C449.91 74.7638 446.567 79.8819 442.059 83.5039C437.601 87.0472 432.004 88.8189 425.267 88.8189H408.78C407.615 88.8189 407.033 87.874 407.033 85.9843V3.66142C407.033 2.71654 407.159 2.08661 407.413 1.77165C407.666 1.37795 408.096 1.1811 408.704 1.1811ZM421.089 15.8268C420.582 15.8268 420.329 16.378 420.329 17.4803V72.6378C420.329 73.7402 420.658 74.2913 421.317 74.2913H422.76C426.914 74.2913 430.383 73.3465 433.169 71.4567C435.955 69.4882 438.032 66.3386 439.399 62.0079C440.818 57.6772 441.527 51.9291 441.527 44.7638C441.527 37.8346 440.868 32.2835 439.551 28.1102C438.285 23.8583 436.31 20.748 433.625 18.7795C430.991 16.811 427.623 15.8268 423.52 15.8268H421.089Z" fill="white"/>
<path d="M471.688 3.42519C471.688 1.92913 472.094 1.1811 472.904 1.1811H511.197C511.957 1.1811 512.337 1.85039 512.337 3.18898L512.261 13.8189C512.261 15.4724 511.729 16.2992 510.665 16.2992H486.428C485.466 16.2992 484.985 16.9291 484.985 18.189V35.315C484.985 36.6535 485.365 37.3228 486.124 37.3228H502.232C503.093 37.3228 503.523 37.9528 503.523 39.2126V50.5512C503.523 51.0236 503.422 51.4173 503.219 51.7323C503.067 52.0472 502.764 52.2047 502.308 52.2047H486.048C485.339 52.2047 484.985 52.6772 484.985 53.622V72.1654C484.985 73.189 485.263 73.7008 485.82 73.7008H511.805C512.717 73.7008 513.173 74.2913 513.173 75.4724V86.6929C513.173 87.3228 513.046 87.8346 512.793 88.2283C512.59 88.622 512.21 88.8189 511.653 88.8189H473.36C472.246 88.8189 471.688 87.9921 471.688 86.3386V3.42519Z" fill="white"/>
<path d="M575.725 1.1811C576.232 1.1811 576.586 1.45669 576.789 2.00788C577.042 2.55905 577.068 3.18897 576.865 3.89764L558.63 86.3386C558.326 87.9921 557.541 88.8189 556.275 88.8189H546.778C545.461 88.8189 544.65 87.9921 544.346 86.3386L526.263 4.01575C526.111 3.22834 526.137 2.55905 526.339 2.00788C526.593 1.45669 526.973 1.1811 527.479 1.1811H538.42C539.23 1.1811 539.762 1.85039 540.015 3.18898L552.476 62.9528C552.78 64.2126 553.084 64.1732 553.388 62.8346L565.468 3.18898C565.671 1.85039 566.228 1.1811 567.14 1.1811H575.725Z" fill="white"/>
</svg>
